HIERARCHY
ROOT hip
{
  OFFSET 0 0 0
  CHANNELS 6 Xposition Yposition Zposition Zrotation Yrotation Xrotation
  JOINT abdomen
  {
    OFFSET 0 20.6881 -0.73152
    CHANNELS 3 Zrotation Xrotation Yrotation
    JOINT chest
    {
      OFFSET 0 11.7043 -0.48768
      CHANNELS 3 Zrotation Xrotation Yrotation
      JOINT neck
      {
        OFFSET 0 22.1894 -2.19456
        CHANNELS 3 Zrotation Xrotation Yrotation
        JOINT head
        {
          OFFSET -0.24384 7.07133 1.2192
          CHANNELS 3 Zrotation Xrotation Yrotation
          JOINT leftEye
          {
            OFFSET 4.14528 8.04674 8.04672
            CHANNELS 3 Zrotation Xrotation Yrotation
            End Site
            {
              OFFSET 1 0 0
            }
          }
          JOINT rightEye
          {
            OFFSET -3.6576 8.04674 8.04672
            CHANNELS 3 Zrotation Xrotation Yrotation
            End Site
            {
              OFFSET 1 0 0
            }
          }
        }
      }
      JOINT rCollar
      {
        OFFSET -2.68224 19.2634 -4.8768
        CHANNELS 3 Zrotation Xrotation Yrotation
        JOINT rShldr
        {
          OFFSET -8.77824 -1.95073 1.46304
          CHANNELS 3 Zrotation Xrotation Yrotation
          JOINT rForeArm
          {
            OFFSET -28.1742 -1.7115 0.48768
            CHANNELS 3 Zrotation Xrotation Yrotation
            JOINT rHand
            {
              OFFSET -22.5879 0.773209 7.07136
              CHANNELS 3 Zrotation Xrotation Yrotation
              JOINT rThumb1
              {
                OFFSET -1.2192 -0.487915 3.41376
                CHANNELS 3 Zrotation Xrotation Yrotation
                JOINT rThumb2
                {
                  OFFSET -3.37035 -0.52449 3.41376
                  CHANNELS 3 Zrotation Xrotation Yrotation
                  End Site
                  {
                    OFFSET -1.78271 -1.18214 1.43049
                  }
                }
              }
              JOINT rIndex1
              {
                OFFSET -7.75947 0.938293 5.60832
                CHANNELS 3 Zrotation Xrotation Yrotation
                JOINT rIndex2
                {
                  OFFSET -2.54057 -0.884171 1.56538
                  CHANNELS 3 Zrotation Xrotation Yrotation
                  End Site
                  {
                    OFFSET -1.62519 -0.234802 1.16502
                  }
                }
              }
              JOINT rMid1
              {
                OFFSET -8.24714 1.18213 3.41376
                CHANNELS 3 Zrotation Xrotation Yrotation
                JOINT rMid2
                {
                  OFFSET -3.10165 -0.590103 1.0647
                  CHANNELS 3 Zrotation Xrotation Yrotation
                  End Site
                  {
                    OFFSET -2.48547 -0.328903 0.83742
                  }
                }
              }
              JOINT rRing1
              {
                OFFSET -8.82822 0.546677 1.51678
                CHANNELS 3 Zrotation Xrotation Yrotation
                JOINT rRing2
                {
                  OFFSET -2.60934 -0.819778 -0.0198488
                  CHANNELS 3 Zrotation Xrotation Yrotation
                  End Site
                  {
                    OFFSET -2.33842 -0.294052 0.168128
                  }
                }
              }
              JOINT rPinky1
              {
                OFFSET -8.27202 -0.0477905 -0.4584
                CHANNELS 3 Zrotation Xrotation Yrotation
                JOINT rPinky2
                {
                  OFFSET -1.82734 -0.647385 -0.700984
                  CHANNELS 3 Zrotation Xrotation Yrotation
                  End Site
                  {
                    OFFSET -1.69225 -0.51767 -0.607171
                  }
                }
              }
            }
          }
        }
      }
      JOINT lCollar
      {
        OFFSET 2.68224 19.2634 -4.8768
        CHANNELS 3 Zrotation Xrotation Yrotation
        JOINT lShldr
        {
          OFFSET 8.77824 -1.95073 1.46304
          CHANNELS 3 Zrotation Xrotation Yrotation
          JOINT lForeArm
          {
            OFFSET 28.1742 -1.7115 0.48768
            CHANNELS 3 Zrotation Xrotation Yrotation
            JOINT lHand
            {
              OFFSET 22.5879 0.773209 7.07136
              CHANNELS 3 Zrotation Xrotation Yrotation
              JOINT lThumb1
              {
                OFFSET 1.2192 -0.487915 3.41376
                CHANNELS 3 Zrotation Xrotation Yrotation
                JOINT lThumb2
                {
                  OFFSET 3.37035 -0.52449 3.41376
                  CHANNELS 3 Zrotation Xrotation Yrotation
                  End Site
                  {
                    OFFSET 1.78271 -1.18214 1.43049
                  }
                }
              }
              JOINT lIndex1
              {
                OFFSET 7.75947 0.938293 5.60832
                CHANNELS 3 Zrotation Xrotation Yrotation
                JOINT lIndex2
                {
                  OFFSET 2.54057 -0.884171 1.56538
                  CHANNELS 3 Zrotation Xrotation Yrotation
                  End Site
                  {
                    OFFSET 1.62519 -0.234802 1.16502
                  }
                }
              }
              JOINT lMid1
              {
                OFFSET 8.24714 1.18213 3.41376
                CHANNELS 3 Zrotation Xrotation Yrotation
                JOINT lMid2
                {
                  OFFSET 3.10165 -0.590103 1.0647
                  CHANNELS 3 Zrotation Xrotation Yrotation
                  End Site
                  {
                    OFFSET 2.48547 -0.328903 0.83742
                  }
                }
              }
              JOINT lRing1
              {
                OFFSET 8.82822 0.546677 1.51678
                CHANNELS 3 Zrotation Xrotation Yrotation
                JOINT lRing2
                {
                  OFFSET 2.60934 -0.819778 -0.0198488
                  CHANNELS 3 Zrotation Xrotation Yrotation
                  End Site
                  {
                    OFFSET 2.33842 -0.294052 0.168128
                  }
                }
              }
              JOINT lPinky1
              {
                OFFSET 8.27202 -0.0477905 -0.4584
                CHANNELS 3 Zrotation Xrotation Yrotation
                JOINT lPinky2
                {
                  OFFSET 1.82734 -0.647385 -0.700984
                  CHANNELS 3 Zrotation Xrotation Yrotation
                  End Site
                  {
                    OFFSET 1.69225 -0.51767 -0.607171
                  }
                }
              }
            }
          }
        }
      }
    }
  }
  JOINT rButtock
  {
    OFFSET -8.77824 4.35084 1.2192
    CHANNELS 3 Zrotation Xrotation Yrotation
    JOINT rThigh
    {
      OFFSET 0 -1.70687 -2.19456
      CHANNELS 3 Zrotation Xrotation Yrotation
      JOINT rShin
      {
        OFFSET 0 -36.8199 0.73152
        CHANNELS 3 Zrotation Xrotation Yrotation
        JOINT rFoot
        {
          OFFSET 0.73152 -45.1104 -5.12064
          CHANNELS 3 Zrotation Xrotation Yrotation
          End Site
          {
            OFFSET -1.1221 -3.69964 12.103
          }
        }
      }
    }
  }
  JOINT lButtock
  {
    OFFSET 8.77824 4.35084 1.2192
    CHANNELS 3 Zrotation Xrotation Yrotation
    JOINT lThigh
    {
      OFFSET 0 -1.70687 -2.19456
      CHANNELS 3 Zrotation Xrotation Yrotation
      JOINT lShin
      {
        OFFSET 0 -36.8199 0.73152
        CHANNELS 3 Zrotation Xrotation Yrotation
        JOINT lFoot
        {
          OFFSET -0.73152 -45.1104 -5.12064
          CHANNELS 3 Zrotation Xrotation Yrotation
          End Site
          {
            OFFSET 1.1221 -3.69964 12.103
          }
        }
      }
    }
  }
}
MOTION
Frames:	5
Frame Time:	0.00833333
0.0 0.0 0.0 0.0 0.0 0.0 0.0 0.0 0.0 0.0 0.0 0.0 0.0 0.0 0.0 0.0 0.0 0.0 0.0 0.0 0.0 0.0 0.0 0.0 0.0 0.0 0.0 0.0 0.0 0.0 0.0 0.0 0.0 0.0 0.0 0.0 0.0 0.0 0.0 0.0 0.0 0.0 0.0 0.0 0.0 0.0 0.0 0.0 0.0 0.0 0.0 0.0 0.0 0.0 0.0 0.0 0.0 0.0 0.0 0.0 0.0 0.0 0.0 0.0 0.0 0.0 0.0 0.0 0.0 0.0 0.0 0.0 0.0 0.0 0.0 0.0 0.0 0.0 0.0 0.0 0.0 0.0 0.0 0.0 0.0 0.0 0.0 0.0 0.0 0.0 0.0 0.0 0.0 0.0 0.0 0.0 0.0 0.0 0.0 0.0 0.0 0.0 0.0 0.0 0.0 0.0 0.0 0.0 0.0 0.0 0.0 0.0 0.0 0.0 0.0 0.0 0.0 0.0 0.0 0.0 0.0 0.0 0.0 0.0 0.0 0.0 0.0 0.0 0.0 0.0 0.0 0.0
-93.2392 84.4941 10.0394 -23.932202 82.913483 -18.84222 2.559189 -6.755039 -159.193802 -0.772559 -5.156056 160.510717 9.39301 6.669874 62.731434 -12.973027 4.080774 -69.958985 0.001946 -0.0 -0.003757 0.001903 0.0 0.001832 1.829553 -69.732981 -16.298685 27.491988 74.522407 -20.775675 -52.350259 61.146083 32.150121 40.264571 -59.087519 28.904116 -20.622653 18.249577 6.387016 -13.519287 9.919371 21.477223 12.561267 -22.428477 -5.205216 -64.185756 49.193044 51.381601 -160.673343 -6.667629 143.245879 80.983461 -77.630427 52.53715 0.004601 1.769603 0.555319 -156.142224 -52.381813 178.588232 -168.140765 80.281118 -148.036857 -26.020533 -40.514756 -26.152367 153.591216 -75.693503 178.261398 88.973174 -82.529119 91.09773 63.719399 -66.679486 88.167923 -60.770341 -68.559371 -46.656342 5.334191 5.170886 -1.05396 0.286727 1.299309 -3.679487 -24.076294 -42.306336 5.558121 111.507725 39.260497 -91.368638 15.422294 32.961707 -11.296238 -3.207242 0.424816 -0.062928 73.625966 72.971786 -91.554363 73.454759 -82.443819 90.552361 126.798855 -26.619832 124.512628 145.855847 8.931205 141.334575 -0.002553 0.001224 -0.001276 1.098989 -6.799875 -15.795334 -9.753862 11.287207 -80.15152 155.200166 -2.507467 -87.542872 179.999467 75.749521 0.0 -178.301081 69.551636 172.894857 -5.023534 -10.002196 -99.709923 -140.853252 23.531915 54.046845
-93.2298 84.5384 9.8461 -19.304827 83.563011 -13.582517 0.982389 -5.401023 56.965354 2.407048 0.031509 -54.500596 -7.377016 10.412717 -43.965296 15.578275 -7.785691 29.849447 0.001099 0.0 0.002211 0.001099 0.0 0.002211 4.209133 -43.443147 -8.383268 133.979314 67.496065 -96.422096 169.244102 64.57531 142.871938 162.199059 -24.999082 143.316158 71.8312 -48.264207 25.791086 -102.270895 37.346445 68.613004 -179.416317 -58.426973 117.049798 -9.367665 36.229308 4.719218 -82.839992 61.112135 74.532454 -83.139226 64.164999 75.307026 -145.117232 0.185558 -179.18643 -54.876138 87.582749 68.078119 -140.385657 -1.529419 -137.472715 44.902141 79.476697 -8.507373 9.651713 34.836151 -11.199368 -52.782563 -6.677728 -25.725317 0.99879 -26.868844 -13.863566 4.046264 12.66442 0.014851 -0.567484 -0.561576 0.084995 104.473762 9.649859 -95.297135 140.685901 1.506196 -116.183031 15.341069 36.999191 -4.367314 -6.534538 -20.414692 2.718031 4.7962 20.786412 -4.267341 145.119994 0.185622 179.186276 132.829416 -65.962988 154.756457 120.52511 -33.684674 118.403092 -6.919127 10.329022 -1.280305 179.997006 75.750385 0.002048 -178.108727 66.653301 0.0 -6.209839 16.367338 -96.679814 12.779686 -11.259576 98.374094 0.000388 -0.000743 0.000582 2.519239 -6.293297 -71.467709 -5.041933 1.359308 73.826582 -130.59112 -25.98365 -2.272633
-93.22409999999999 84.5873 9.6735 -13.482721 84.141315 -7.124197 2.736836 -10.666403 141.856557 3.244656 -4.66122 -138.11908 9.673751 24.837777 137.483958 -12.8113 33.780186 -158.423587 0.003856 0.0 0.002353 -0.001823 -0.0 0.003108 -33.835983 -85.665833 -55.253299 -92.12185 -29.87236 -95.058846 -178.255901 10.813577 -158.508566 -9.302281 47.258214 4.838939 -121.364425 30.329677 71.95816 -135.315764 -13.003225 70.682034 -9.375337 13.535582 6.014899 0.428142 12.87545 2.348995 2.100119 -6.305383 -1.081939 -11.415861 33.414941 9.075033 -145.119934 0.310187 -179.225548 10.017546 69.117044 1.043942 17.607545 61.627493 12.864404 2.359985 2.381279 0.110496 -4.239036 -44.742721 8.648478 -160.396584 57.189404 97.384774 -167.617907 77.562822 -137.770404 -170.051615 -18.478234 -143.57723 0.543925 0.536176 -0.086683 64.310744 28.182791 -58.785808 151.35401 -17.158484 -121.132372 134.231033 32.278689 -108.314703 154.142899 11.63456 -139.428452 -86.52641 -77.98002 -57.73642 74.389842 -72.134261 91.483509 149.88673 -26.395547 179.971804 10.076054 -20.712674 9.539198 23.959588 -41.355771 25.079362 -0.0 -0.001504 -0.000781 0.987544 -11.202922 -0.0 -2.941175 10.788552 -8.169992 8.968279 -8.412165 4.43857 -0.00088 -0.001652 0.001131 2.530127 -9.212877 -155.805839 -12.324938 -11.94784 -121.195889 -95.775828 59.611361 -3.154677
-93.2213 84.63199999999999 9.504700000000001 -6.295464 84.655544 0.664211 5.128466 -8.283127 0.952776 -1.370316 1.868536 3.521786 4.306713 30.223159 175.459022 10.477635 40.000501 150.674165 -0.000941 -0.0 0.000868 -0.001466 0.0 -0.00131 -157.84534 -65.803447 175.51433 -14.245959 24.491353 -63.250041 113.862056 -85.052503 48.747606 148.885554 -41.367844 136.557664 -168.11124 -5.78893 89.870444 -13.803716 -43.630159 6.54392 -152.812243 -19.872641 121.574283 -177.966599 -44.681441 114.700822 -157.052753 3.993759 141.298917 -166.179192 -13.665502 143.675021 -145.098514 -1.522114 -178.650022 12.209155 48.564215 -3.339903 25.906504 79.094648 10.841762 -25.783547 -40.718427 -25.759629 33.833568 -85.66598 55.250915 -20.848899 3.280317 72.689687 178.124503 -61.486909 -115.6937 -167.599687 -24.908991 -142.455097 166.632101 -4.304503 -89.771705 -176.805391 -19.36055 -92.489463 26.601513 30.072102 -19.415436 -14.650182 -10.01933 2.232888 6.646106 17.109104 -4.324552 27.839248 51.223535 -23.100633 0.014144 -1.323229 0.415387 -7.030835 29.665609 -4.663987 -31.508478 83.082763 -6.651622 -7.162262 17.146924 -3.384156 -179.996555 75.749588 -0.003554 -177.046701 62.865987 -6.790491 0.85377 13.17323 43.103082 -84.58614 32.404524 6.011776 0.0 0.00017 -0.001725 2.254598 -8.415739 15.05654 8.423783 9.18772 25.156053 94.123337 -49.215472 0.255768
